<svg width="33" height="33" viewBox="0 0 33 33" fill="none" xmlns="http://www.w3.org/2000/svg">
<rect width="32.21" height="32.21" rx="5" fill="#929292"/>
<g clip-path="url(#clip0_306_77)">
<path d="M16.5875 7.64751C16.4066 7.55121 16.2049 7.50084 16 7.50084C15.7951 7.50084 15.5934 7.55121 15.4125 7.64751L7.9125 11.6475C7.71253 11.754 7.54525 11.9128 7.42856 12.107C7.31187 12.3012 7.25015 12.5235 7.25 12.75V13.7713L14.4375 18.0838L16 17.1463L17.5625 18.0838L24.75 13.7713V12.75C24.7498 12.5235 24.6881 12.3012 24.5714 12.107C24.4547 11.9128 24.2875 11.754 24.0875 11.6475L16.5875 7.64751ZM24.75 15.2288L18.7775 18.8125L24.75 22.3963V15.2288ZM24.7062 23.8288L16 18.6025L7.29375 23.8275C7.36566 24.0924 7.52273 24.3262 7.74073 24.4929C7.95874 24.6596 8.22555 24.75 8.5 24.75H23.5C23.7744 24.75 24.0413 24.6596 24.2593 24.4929C24.4773 24.3262 24.6343 24.0924 24.7062 23.8275V23.8288ZM7.25 22.395L13.2225 18.8113L7.25 15.2288V22.3963V22.395ZM14.8237 6.54376C15.1858 6.35073 15.5897 6.24976 16 6.24976C16.4103 6.24976 16.8142 6.35073 17.1763 6.54376L24.6763 10.5438C25.0761 10.757 25.4106 11.0749 25.6437 11.4635C25.8769 11.8521 26 12.2968 26 12.75V23.5C26 24.163 25.7366 24.7989 25.2678 25.2678C24.7989 25.7366 24.163 26 23.5 26H8.5C7.83696 26 7.20107 25.7366 6.73223 25.2678C6.26339 24.7989 6 24.163 6 23.5V12.75C5.99995 12.2968 6.1231 11.8521 6.35627 11.4635C6.58943 11.0749 6.92385 10.757 7.32375 10.5438L14.8237 6.54376Z" fill="#EFEFEF"/>
</g>
<defs>
<clipPath id="clip0_306_77">
<rect width="20" height="20" fill="white" transform="translate(6 6)"/>
</clipPath>
</defs>
</svg>
