<svg width="175" height="53" viewBox="0 0 175 53" fill="none" xmlns="http://www.w3.org/2000/svg">
<path d="M12.3268 36.6619C10.8343 35.1817 9.55627 33.641 8.46993 32.1444C7.34688 30.5979 6.42896 29.0985 5.69045 27.7631C5.22476 26.9209 4.89445 26.1553 4.66895 25.4612C3.35791 21.4234 5.61665 19.8275 5.61665 19.8275C5.84134 19.6365 6.09009 19.4549 6.36086 19.2823C10.5513 16.6077 19.9051 16.0871 24.1392 15.9914C27.6482 15.912 28.6986 15.9026 33.0412 16.168C38.1413 16.4797 44.7977 17.2773 48.0216 19.3023C48.2867 19.4688 48.5285 19.6438 48.7446 19.8275C48.7446 19.8275 51.0034 21.4234 49.6923 25.4612C49.4672 26.1553 49.1365 26.9209 48.6708 27.7631C47.9323 29.0985 47.0144 30.5979 45.8913 32.1444C44.805 33.641 43.527 35.1817 42.0345 36.6619C39.6355 39.042 36.6823 41.2654 33.0807 42.8961C31.2803 43.7116 29.3172 44.3791 27.1808 44.8438C25.044 44.3791 23.0813 43.7116 21.2806 42.8961C17.679 41.2654 14.7258 39.042 12.3268 36.6619Z" fill="url(#paint0_linear_320_2)"/>
<path d="M27.5898 19.6768C37.0574 19.6768 44.7324 20.7426 44.7324 22.0572C44.7324 23.3722 37.0574 24.438 27.5898 24.438C18.1222 24.438 10.4473 23.3722 10.4473 22.0572C10.4473 20.7426 18.1222 19.6768 27.5898 19.6768Z" fill="#4F2218"/>
<path d="M45.9736 26.5538C48.4669 25.8736 47.9457 25.42 47.9457 25.42C47.7969 24.3619 46.7925 24.8912 46.7925 24.8912C35.1677 28.245 19.1894 28.2442 7.56904 24.8912C7.56904 24.8912 6.56425 24.3619 6.41541 25.42C6.41541 25.42 5.89426 25.8736 8.38747 26.5538C19.7688 29.6586 34.5911 29.659 45.9736 26.5538Z" fill="white"/>
<path d="M45.9736 26.5538C48.4669 25.8736 47.9457 25.42 47.9457 25.42C47.7969 24.3619 46.7925 24.8912 46.7925 24.8912C35.1677 28.245 19.1894 28.2442 7.56904 24.8912C7.56904 24.8912 6.56425 24.3619 6.41541 25.42C6.41541 25.42 5.89426 25.8736 8.38747 26.5538C19.7688 29.6586 34.5911 29.659 45.9736 26.5538Z" fill="#4F2218"/>
<path d="M15.8061 2.51623L23.0545 0C23.0545 0 17.4368 1.94975 17.9372 3.82343C17.9372 3.82343 18.146 4.60873 19.7649 5.34208C21.3838 6.07544 31.3053 8.90375 30.2609 12.3603C30.2609 12.3603 29.4776 15.398 20.7049 14.2982C20.7049 14.2982 25.509 12.7791 25.1436 11.0511C25.1436 11.0511 25.248 9.79416 21.7492 8.53686C18.2508 7.27998 14.073 5.39403 13.6815 5.00138C12.2947 3.61074 14.8543 2.84671 15.8061 2.51623Z" fill="white"/>
<path d="M29.6942 5.09691L35.5961 3.25391C35.5961 3.25391 31.0219 4.68217 30.9473 6.0544C30.9473 6.0544 30.9155 6.62947 31.9285 7.1665C32.9414 7.70394 39.5423 9.77558 37.9633 12.3074C37.9633 12.3074 36.6743 14.5324 30.5077 13.7266C30.5077 13.7266 34.3846 12.6141 34.5236 11.3482C34.5236 11.3482 34.8959 10.4275 32.6294 9.50686C30.363 8.58618 27.7474 7.20495 27.5529 6.91741C26.8646 5.89857 28.9194 5.33904 29.6942 5.09691Z" fill="white"/>
<path d="M27 52.4756C19.8299 39.2163 7.9543 37.6428 7.9543 37.6428C18.9336 41.3513 23.5269 52.3635 23.5269 52.3635C5.60177 52.588 0 31.9122 0 31.9122C21.8464 31.2381 27 50.678 27 50.678C27 50.678 32.1536 31.2381 54 31.9122C54 31.9122 48.3982 52.588 30.4731 52.3635C30.4731 52.3635 35.0664 41.3513 46.0457 37.6428C46.0457 37.6428 34.1701 39.2163 27 52.4756Z" fill="url(#paint1_radial_320_2)"/>
<path d="M90.7743 41.3226L90.0611 39.2068L89.3034 41.3226H90.7743ZM89.7288 38.4961H90.4481L92.1526 43.2852H91.4553L90.979 41.8507H89.1211L88.6126 43.2852H87.9604L89.7288 38.4961Z" fill="white"/>
<path d="M94.6086 41.7401C94.6232 42.0119 94.6863 42.2326 94.797 42.4019C95.0081 42.7192 95.3802 42.8779 95.9132 42.8779C96.1518 42.8779 96.3694 42.8434 96.5653 42.7736C96.9448 42.6388 97.1346 42.3979 97.1346 42.0501C97.1346 41.7893 97.0548 41.6035 96.8949 41.4926C96.7327 41.3838 96.4791 41.2895 96.1338 41.209L95.4973 41.0621C95.0818 40.9666 94.7875 40.8612 94.6147 40.7459C94.3163 40.5461 94.1673 40.2472 94.1673 39.8494C94.1673 39.419 94.3133 39.0661 94.6052 38.7899C94.8971 38.5141 95.311 38.376 95.846 38.376C96.3385 38.376 96.7568 38.4972 97.101 38.7396C97.4456 38.9816 97.6177 39.3691 97.6177 39.9016H97.0195C96.9876 39.6452 96.9194 39.4484 96.8148 39.3114C96.621 39.0617 96.2917 38.9368 95.8266 38.9368C95.4515 38.9368 95.182 39.0172 95.0177 39.1777C94.8537 39.3386 94.7715 39.5255 94.7715 39.7385C94.7715 39.9732 94.8676 40.1451 95.0594 40.2538C95.185 40.3232 95.4698 40.4102 95.9132 40.5145L96.5718 40.6677C96.8895 40.7415 97.1346 40.8425 97.3074 40.971C97.6058 41.1947 97.7552 41.5197 97.7552 41.9458C97.7552 42.4761 97.5657 42.8551 97.1876 43.0835C96.809 43.3116 96.3694 43.4258 95.8684 43.4258C95.2841 43.4258 94.8269 43.2734 94.4966 42.9693C94.1659 42.6671 94.004 42.2576 94.0104 41.7401H94.6086Z" fill="white"/>
<path d="M98.4839 39.8102H99.0691V43.2852H98.4839V39.8102ZM98.4839 38.4961H99.0691V39.1612H98.4839V38.4961Z" fill="white"/>
<path d="M101.384 42.8909C101.653 42.8909 101.876 42.7764 102.055 42.5468C102.232 42.3177 102.321 41.975 102.321 41.5185C102.321 41.2401 102.282 41.001 102.203 40.8012C102.054 40.4167 101.781 40.2243 101.384 40.2243C100.986 40.2243 100.713 40.4274 100.566 40.8339C100.487 41.0513 100.448 41.3271 100.448 41.6617C100.448 41.9313 100.487 42.1608 100.566 42.3496C100.715 42.7106 100.988 42.8909 101.384 42.8909ZM99.8945 39.8103H100.454V40.2731C100.569 40.1144 100.695 39.9918 100.831 39.9047C101.025 39.7744 101.253 39.709 101.516 39.709C101.904 39.709 102.233 39.8607 102.504 40.164C102.775 40.467 102.91 40.9 102.91 41.463C102.91 42.2236 102.715 42.7672 102.325 43.0929C102.077 43.2997 101.789 43.4029 101.461 43.4029C101.204 43.4029 100.987 43.3452 100.812 43.2299C100.71 43.1649 100.596 43.0529 100.47 42.8942V44.6773H99.8945V39.8103Z" fill="white"/>
<path d="M106.76 42.9071C107.141 42.9071 107.403 42.7599 107.545 42.4657C107.687 42.1712 107.758 41.8436 107.758 41.4825C107.758 41.1568 107.706 40.8916 107.604 40.6871C107.442 40.3657 107.163 40.2048 106.766 40.2048C106.415 40.2048 106.159 40.3415 105.999 40.6154C105.839 40.8894 105.759 41.2196 105.759 41.6067C105.759 41.978 105.839 42.2879 105.999 42.5355C106.159 42.7834 106.413 42.9071 106.76 42.9071ZM106.782 39.6929C107.224 39.6929 107.597 39.8427 107.902 40.1428C108.206 40.4428 108.359 40.8839 108.359 41.4664C108.359 42.0294 108.224 42.4943 107.956 42.8616C107.687 43.2289 107.27 43.4125 106.706 43.4125C106.234 43.4125 105.86 43.2502 105.583 42.9251C105.306 42.6001 105.167 42.1638 105.167 41.6162C105.167 41.0293 105.313 40.5622 105.606 40.2144C105.898 39.8666 106.29 39.6929 106.782 39.6929Z" fill="white"/>
<path d="M109.187 39.2626C109.196 39.0191 109.237 38.841 109.312 38.7279C109.446 38.5281 109.705 38.4282 110.089 38.4282C110.125 38.4282 110.162 38.4293 110.201 38.4315C110.239 38.4337 110.283 38.4367 110.332 38.4411V38.9758C110.272 38.9714 110.229 38.9688 110.202 38.9677C110.176 38.9666 110.15 38.9659 110.127 38.9659C109.952 38.9659 109.848 39.0122 109.814 39.1047C109.78 39.1969 109.762 39.4323 109.762 39.8106H110.332V40.2733H109.756V43.2856H109.187V40.2733H108.71V39.8106H109.187V39.2626Z" fill="white"/>
<path d="M112.775 38.4961H113.418V40.4749H115.861V38.4961H116.504V43.2852H115.861V41.0456H113.418V43.2852H112.775V38.4961Z" fill="white"/>
<path d="M117.853 42.3562C117.853 42.5259 117.914 42.6596 118.035 42.7573C118.157 42.855 118.301 42.9038 118.467 42.9038C118.67 42.9038 118.866 42.8561 119.056 42.7606C119.375 42.6019 119.535 42.3423 119.535 41.9812V41.5086C119.465 41.5545 119.374 41.5923 119.263 41.6228C119.152 41.6533 119.044 41.6749 118.937 41.6878L118.588 41.7337C118.38 41.762 118.223 41.8064 118.119 41.8674C117.941 41.9695 117.853 42.1326 117.853 42.3562ZM119.247 41.1696C119.379 41.1523 119.468 41.0958 119.513 40.9999C119.538 40.9478 119.551 40.8728 119.551 40.7752C119.551 40.5754 119.481 40.4303 119.342 40.3399C119.202 40.2496 119.002 40.2048 118.742 40.2048C118.441 40.2048 118.228 40.2871 118.103 40.4523C118.032 40.5438 117.986 40.6797 117.965 40.86H117.428C117.438 40.4296 117.575 40.1302 117.839 39.9617C118.102 39.7935 118.408 39.709 118.755 39.709C119.158 39.709 119.485 39.7872 119.737 39.9437C119.986 40.1005 120.111 40.3436 120.111 40.6742V42.6857C120.111 42.7463 120.123 42.7955 120.148 42.8322C120.172 42.8693 120.224 42.8876 120.303 42.8876C120.328 42.8876 120.357 42.8862 120.389 42.8829C120.421 42.8796 120.455 42.8748 120.491 42.8682V43.3016C120.402 43.3276 120.334 43.3442 120.286 43.3508C120.24 43.357 120.176 43.3603 120.095 43.3603C119.896 43.3603 119.752 43.2887 119.663 43.1451C119.616 43.0691 119.583 42.9615 119.564 42.8227C119.447 42.9791 119.278 43.1146 119.059 43.2299C118.839 43.3453 118.597 43.4029 118.333 43.4029C118.015 43.4029 117.756 43.3045 117.554 43.1076C117.353 42.9112 117.252 42.6651 117.252 42.3694C117.252 42.0455 117.351 41.7943 117.549 41.6162C117.748 41.4381 118.008 41.3283 118.329 41.2871L119.247 41.1696Z" fill="white"/>
<path d="M122.5 42.8909C122.768 42.8909 122.991 42.7764 123.169 42.5468C123.348 42.3177 123.436 41.975 123.436 41.5185C123.436 41.2401 123.397 41.001 123.318 40.8012C123.169 40.4167 122.896 40.2243 122.5 40.2243C122.101 40.2243 121.828 40.4274 121.681 40.8339C121.602 41.0513 121.563 41.3271 121.563 41.6617C121.563 41.9313 121.602 42.1608 121.681 42.3496C121.83 42.7106 122.103 42.8909 122.5 42.8909ZM121.009 39.8103H121.569V40.2731C121.684 40.1144 121.81 39.9918 121.946 39.9047C122.14 39.7744 122.369 39.709 122.631 39.709C123.019 39.709 123.348 39.8607 123.619 40.164C123.89 40.467 124.025 40.9 124.025 41.463C124.025 42.2236 123.83 42.7672 123.44 43.0929C123.192 43.2997 122.905 43.4029 122.576 43.4029C122.318 43.4029 122.102 43.3452 121.927 43.2299C121.825 43.1649 121.711 43.0529 121.585 42.8942V44.6773H121.009V39.8103Z" fill="white"/>
<path d="M126.142 42.8909C126.411 42.8909 126.634 42.7764 126.812 42.5468C126.99 42.3177 127.079 41.975 127.079 41.5185C127.079 41.2401 127.039 41.001 126.961 40.8012C126.811 40.4167 126.538 40.2243 126.142 40.2243C125.743 40.2243 125.47 40.4274 125.323 40.8339C125.244 41.0513 125.205 41.3271 125.205 41.6617C125.205 41.9313 125.244 42.1608 125.323 42.3496C125.472 42.7106 125.745 42.8909 126.142 42.8909ZM124.652 39.8103H125.211V40.2731C125.326 40.1144 125.452 39.9918 125.589 39.9047C125.783 39.7744 126.011 39.709 126.273 39.709C126.661 39.709 126.99 39.8607 127.261 40.164C127.532 40.467 127.667 40.9 127.667 41.463C127.667 42.2236 127.472 42.7672 127.082 43.0929C126.835 43.2997 126.547 43.4029 126.219 43.4029C125.961 43.4029 125.744 43.3452 125.569 43.2299C125.467 43.1649 125.353 43.0529 125.227 42.8942V44.6773H124.652V39.8103Z" fill="white"/>
<path d="M128.339 39.8102H128.924V43.2852H128.339V39.8102ZM128.339 38.4961H128.924V39.1612H128.339V38.4961Z" fill="white"/>
<path d="M129.793 39.7941H130.34V40.2895C130.502 40.0853 130.674 39.9388 130.855 39.8495C131.036 39.7603 131.238 39.7158 131.46 39.7158C131.945 39.7158 132.274 39.8888 132.444 40.234C132.538 40.4232 132.585 40.6938 132.585 41.046V43.2856H132V41.085C132 40.872 131.969 40.7005 131.907 40.5701C131.805 40.3527 131.619 40.244 131.351 40.244C131.214 40.244 131.102 40.2583 131.015 40.2866C130.857 40.3343 130.719 40.4298 130.599 40.5734C130.503 40.6883 130.441 40.8073 130.412 40.9304C130.383 41.053 130.369 41.2286 130.369 41.4567V43.2856H129.793V39.7941Z" fill="white"/>
<path d="M134.862 39.7158C135.105 39.7158 135.341 39.7738 135.569 39.8903C135.797 40.0067 135.971 40.1569 136.09 40.3416C136.205 40.5179 136.282 40.7232 136.32 40.9579C136.354 41.1188 136.372 41.3751 136.372 41.7273H133.861C133.872 42.0817 133.954 42.3656 134.107 42.5797C134.261 42.7938 134.499 42.9011 134.821 42.9011C135.121 42.9011 135.361 42.7997 135.54 42.5977C135.643 42.4802 135.715 42.3447 135.758 42.1901H136.323C136.309 42.3186 136.259 42.4615 136.175 42.619C136.091 42.7766 135.996 42.9051 135.892 43.0054C135.717 43.1791 135.501 43.2966 135.243 43.3572C135.104 43.3921 134.948 43.4094 134.773 43.4094C134.346 43.4094 133.985 43.2515 133.689 42.9352C133.392 42.619 133.244 42.1761 133.244 41.6069C133.244 41.046 133.393 40.5906 133.692 40.2406C133.99 39.8906 134.38 39.7158 134.862 39.7158ZM135.78 41.2613C135.757 41.0067 135.702 40.8037 135.617 40.6516C135.459 40.3688 135.196 40.2278 134.827 40.2278C134.563 40.2278 134.341 40.3251 134.162 40.5194C133.983 40.714 133.888 40.9612 133.877 41.2613H135.78Z" fill="white"/>
<path d="M137.42 42.1897C137.437 42.3855 137.485 42.5353 137.564 42.6396C137.709 42.8288 137.961 42.9235 138.319 42.9235C138.532 42.9235 138.72 42.8761 138.882 42.7818C139.044 42.687 139.125 42.5408 139.125 42.3433C139.125 42.193 139.06 42.0792 138.93 42.001C138.847 41.9528 138.682 41.8978 138.437 41.8346L137.98 41.7171C137.688 41.6433 137.472 41.5606 137.334 41.4695C137.086 41.3109 136.963 41.0913 136.963 40.811C136.963 40.4805 137.08 40.2131 137.313 40.0089C137.546 39.8047 137.86 39.7026 138.255 39.7026C138.771 39.7026 139.143 39.8569 139.371 40.1654C139.514 40.3611 139.583 40.572 139.579 40.7978H139.035C139.025 40.6652 138.979 40.5448 138.898 40.4361C138.766 40.2818 138.536 40.2047 138.21 40.2047C137.993 40.2047 137.828 40.2469 137.716 40.3318C137.604 40.4166 137.548 40.5282 137.548 40.6674C137.548 40.8195 137.622 40.9414 137.769 41.0325C137.854 41.0868 137.98 41.1346 138.146 41.1761L138.527 41.2705C138.94 41.3726 139.217 41.4717 139.358 41.5672C139.582 41.7171 139.694 41.9529 139.694 42.2746C139.694 42.5857 139.578 42.8538 139.347 43.08C139.115 43.3058 138.763 43.419 138.29 43.419C137.781 43.419 137.42 43.3011 137.208 43.0653C136.996 42.8295 136.882 42.5375 136.867 42.1897H137.42Z" fill="white"/>
<path d="M140.695 42.1897C140.712 42.3855 140.76 42.5353 140.839 42.6396C140.983 42.8288 141.235 42.9235 141.593 42.9235C141.806 42.9235 141.994 42.8761 142.156 42.7818C142.318 42.687 142.399 42.5408 142.399 42.3433C142.399 42.193 142.334 42.0792 142.204 42.001C142.121 41.9528 141.957 41.8978 141.712 41.8346L141.254 41.7171C140.962 41.6433 140.747 41.5606 140.608 41.4695C140.361 41.3109 140.237 41.0913 140.237 40.811C140.237 40.4805 140.354 40.2131 140.588 40.0089C140.821 39.8047 141.135 39.7026 141.529 39.7026C142.045 39.7026 142.417 39.8569 142.645 40.1654C142.788 40.3611 142.857 40.572 142.853 40.7978H142.309C142.299 40.6652 142.253 40.5448 142.172 40.4361C142.04 40.2818 141.811 40.2047 141.485 40.2047C141.267 40.2047 141.102 40.2469 140.991 40.3318C140.879 40.4166 140.823 40.5282 140.823 40.6674C140.823 40.8195 140.896 40.9414 141.043 41.0325C141.128 41.0868 141.254 41.1346 141.421 41.1761L141.801 41.2705C142.215 41.3726 142.492 41.4717 142.633 41.5672C142.856 41.7171 142.968 41.9529 142.968 42.2746C142.968 42.5857 142.853 42.8538 142.621 43.08C142.39 43.3058 142.038 43.419 141.565 43.419C141.055 43.419 140.694 43.3011 140.482 43.0653C140.27 42.8295 140.157 42.5375 140.142 42.1897H140.695Z" fill="white"/>
<path d="M85.0775 42.8159H63V43.0793H85.0775V42.8159Z" fill="#FF7218"/>
<path d="M174.251 42.8159H152.173V43.0793H174.251V42.8159Z" fill="#FF7218"/>
<path d="M109.876 10.1365C109.406 10.0234 108.927 10.0704 108.44 10.2776C107.953 10.4847 107.513 10.8145 107.122 11.2662C106.73 11.7183 106.399 12.2692 106.129 12.9189C105.859 13.5686 105.707 14.2796 105.672 15.052C105.637 15.824 105.737 16.6338 105.972 17.4814C106.207 18.3287 106.63 19.1763 107.239 20.024C107.918 20.9844 108.353 21.9826 108.545 23.0183C108.736 24.0539 108.745 25.0713 108.571 26.0691C108.397 27.0673 108.066 27.9998 107.578 28.8662C107.091 29.7322 106.508 30.4715 105.829 31.0837C105.15 31.6956 104.415 32.1429 103.622 32.4253C102.83 32.7081 102.043 32.7551 101.259 32.5667C100.441 32.3783 99.7971 32.0206 99.3269 31.4932C98.8571 30.9658 98.5349 30.354 98.3608 29.6569C98.1866 28.9602 98.1388 28.2161 98.2172 27.4254C98.2956 26.6343 98.4609 25.8763 98.7132 25.1513C98.9657 24.426 99.2964 23.7623 99.7054 23.1597C100.115 22.557 100.559 22.1049 101.037 21.8037C101.516 21.5022 102.017 21.3799 102.539 21.4365C103.061 21.4927 103.566 21.8129 104.053 22.3969C103.792 22.3216 103.475 22.4861 103.1 22.8912C102.726 23.2959 102.36 23.8233 102.003 24.473C101.647 25.123 101.324 25.8432 101.037 26.6343C100.75 27.4254 100.554 28.1787 100.45 28.8941C100.345 29.6099 100.363 30.2313 100.502 30.7587C100.641 31.2861 100.972 31.6155 101.494 31.7473C101.877 31.8417 102.325 31.8087 102.839 31.6486C103.353 31.4884 103.853 31.2203 104.341 30.8435C104.828 30.4667 105.263 29.9867 105.646 29.4027C106.029 28.8188 106.286 28.1504 106.416 27.3971C106.547 26.6435 106.508 25.8102 106.299 24.8968C106.09 23.9834 105.637 23.0087 104.941 21.973C104.14 20.7864 103.622 19.6332 103.387 18.5123C103.152 17.3918 103.122 16.3418 103.296 15.3627C103.47 14.3832 103.801 13.4933 104.288 12.693C104.776 11.8924 105.337 11.224 105.972 10.6874C106.608 10.1505 107.278 9.7645 107.983 9.52909C108.688 9.29367 109.345 9.24189 109.955 9.37373C110.599 9.52431 111.077 9.75973 111.391 10.08C111.704 10.3999 111.904 10.7671 111.991 11.1818C112.496 10.4281 113.053 9.88202 113.662 9.54304C114.272 9.20406 114.968 9.24188 115.752 9.65615C115.542 9.65615 115.299 9.90553 115.02 10.4046C114.742 10.9038 114.424 11.5208 114.067 12.2553C113.71 12.9894 113.306 13.7757 112.853 14.6138C112.4 15.4519 111.895 16.2195 111.338 16.9162C110.781 17.6133 110.172 18.1686 109.511 18.5832C108.849 18.9975 108.127 19.1481 107.344 19.0349C107.709 19.0162 108.053 18.7808 108.375 18.3287C108.697 17.877 109.014 17.3165 109.328 16.6481C109.641 15.9793 109.963 15.2543 110.294 14.4728C110.625 13.6913 110.982 12.952 111.365 12.2553C111.365 11.7466 111.256 11.2993 111.038 10.9133C110.821 10.5273 110.433 10.2684 109.876 10.1365Z" fill="#FF7218"/>
<path d="M113.088 18.13C113.75 18.13 114.302 18.2006 114.746 18.342C115.19 18.483 115.542 18.6383 115.804 18.808C116.117 19.0152 116.352 19.241 116.509 19.486C116.143 20.0699 115.747 20.7009 115.321 21.3789C114.894 22.0568 114.463 22.7535 114.028 23.4693C114.533 22.7913 115.042 22.1508 115.556 21.5482C116.069 20.9455 116.57 20.4181 117.057 19.9664C117.545 19.5143 118.01 19.1613 118.454 18.9068C118.898 18.6527 119.303 18.5348 119.668 18.5539C119.964 18.5726 120.225 18.6339 120.452 18.7375C120.678 18.8411 120.861 18.9586 121 19.0904C121.174 19.241 121.313 19.4107 121.418 19.5991C121.296 19.6744 121.096 19.8911 120.817 20.2488C120.539 20.6065 120.217 21.0586 119.851 21.6047C119.485 22.1508 119.09 22.7631 118.663 23.441C118.236 24.119 117.823 24.8252 117.423 25.5598C117.962 24.6934 118.554 23.8131 119.198 22.9184C119.843 22.0238 120.491 21.2187 121.144 20.5029C121.797 19.7875 122.428 19.2083 123.037 18.7658C123.646 18.3232 124.203 18.1113 124.708 18.13C125.021 18.1488 125.304 18.2197 125.556 18.342C125.809 18.4643 126.027 18.6056 126.209 18.7658C126.392 18.9259 126.54 19.1 126.653 19.2884C126.766 19.4764 126.849 19.6461 126.901 19.7967C126.727 19.7967 126.405 20.0887 125.935 20.6726C125.465 21.2562 124.939 21.9907 124.355 22.8758C123.772 23.7613 123.18 24.7169 122.58 25.7434C121.979 26.7699 121.466 27.7255 121.039 28.6106C120.613 29.4957 120.326 30.2302 120.178 30.8142C120.03 31.3981 120.112 31.6901 120.425 31.6901C120.739 31.6901 121.113 31.5065 121.548 31.1392C121.984 30.7719 122.423 30.3055 122.867 29.7407C123.311 29.1758 123.729 28.554 124.121 27.8761C124.512 27.1981 124.825 26.558 125.061 25.9553C125.295 25.3526 125.422 24.8252 125.439 24.3731C125.456 23.9214 125.308 23.6386 124.995 23.5259H127.711C126.858 25.2395 125.987 26.7556 125.1 28.074C124.717 28.6389 124.312 29.1946 123.885 29.7407C123.459 30.2868 123.024 30.7719 122.58 31.1954C122.136 31.6192 121.683 31.9582 121.222 32.2127C120.761 32.4669 120.312 32.5939 119.877 32.5939C119.164 32.5939 118.672 32.4055 118.402 32.0291C118.132 31.6523 118.019 31.1532 118.062 30.5318C118.106 29.9104 118.28 29.1993 118.585 28.3987C118.889 27.5984 119.25 26.7839 119.668 25.9553C120.661 23.9967 122.027 21.7744 123.768 19.2884C123.472 19.2884 123.015 19.5708 122.397 20.1357C121.779 20.7009 121.091 21.4354 120.334 22.3392C119.577 23.2431 118.802 24.2508 118.01 25.3618C117.218 26.4731 116.509 27.5749 115.882 28.6672C115.69 29.1005 115.521 29.5196 115.373 29.9243C115.225 30.3294 115.112 30.7011 115.033 31.0401C114.955 31.379 114.916 31.6805 114.916 31.9442C114.916 32.2079 114.96 32.4243 115.046 32.5939C114.333 32.5939 113.837 32.4103 113.558 32.043C113.28 31.6758 113.162 31.191 113.206 30.5883C113.249 29.9856 113.414 29.2981 113.702 28.5258C113.989 27.7538 114.333 26.9627 114.733 26.1529C115.69 24.2696 117.014 22.1226 118.702 19.7118C118.406 19.7118 117.962 19.9755 117.37 20.5029C116.778 21.0303 116.126 21.7131 115.412 22.5511C114.698 23.3892 113.963 24.3357 113.206 25.3901C112.448 26.4449 111.756 27.4901 111.13 28.5258C110.834 29.1097 110.568 29.6511 110.333 30.1502C110.098 30.6493 109.92 31.0779 109.798 31.4356C109.676 31.7937 109.619 32.0761 109.628 32.2832C109.637 32.4904 109.719 32.5939 109.876 32.5939C109.215 32.5939 108.784 32.4055 108.584 32.0291C108.383 31.6523 108.335 31.1532 108.44 30.5318C108.545 29.9104 108.762 29.1993 109.093 28.3987C109.423 27.5984 109.802 26.7699 110.229 25.9127C110.655 25.0559 111.086 24.1991 111.521 23.3422C111.957 22.485 112.331 21.7035 112.644 20.9973C112.957 20.291 113.166 19.6839 113.271 19.1753C113.375 18.6666 113.314 18.3185 113.088 18.13Z" fill="#FF7218"/>
<path d="M132.515 28.9498C132.132 28.9498 131.819 28.8745 131.575 28.7239C131.105 29.27 130.622 29.7787 130.126 30.2495C129.63 30.7203 129.134 31.1298 128.638 31.4784C128.142 31.8265 127.654 32.0998 127.175 32.2974C126.697 32.4953 126.249 32.5941 125.831 32.5941C125.169 32.5941 124.712 32.3444 124.46 31.8456C124.207 31.3465 124.112 30.6968 124.172 29.8962C124.234 29.0959 124.429 28.1965 124.76 27.1983C125.091 26.2001 125.504 25.2066 126.001 24.218C126.497 23.2293 127.058 22.2924 127.685 21.4073C128.311 20.5218 128.951 19.7969 129.604 19.232C130.257 18.6668 130.896 18.3043 131.523 18.1442C132.15 17.9844 132.724 18.1302 133.247 18.5823C134.012 18.4126 134.604 18.4174 135.022 18.5963C135.44 18.7751 135.71 19.0858 135.832 19.5284C135.953 19.9713 135.945 20.5174 135.805 21.1671C135.666 21.8168 135.431 22.5135 135.1 23.2576C134.77 24.0013 134.356 24.7736 133.86 25.5739C133.364 26.3745 132.829 27.1417 132.254 27.8763C132.324 28.1025 132.524 28.2152 132.855 28.2152C133.238 28.2152 133.643 28.0177 134.069 27.6221C134.495 27.2266 134.861 26.7653 135.166 26.2379C135.47 25.7105 135.657 25.1879 135.727 24.6701C135.797 24.1522 135.657 23.7706 135.31 23.526H138.025C137.503 24.543 136.946 25.4468 136.354 26.2379C136.093 26.5769 135.814 26.9111 135.518 27.2409C135.222 27.5703 134.913 27.8623 134.592 28.1164C134.269 28.3706 133.934 28.5733 133.586 28.7239C133.238 28.8745 132.881 28.9498 132.515 28.9498ZM131.419 23.9495C131.558 23.4225 131.732 22.9234 131.941 22.4525C132.15 21.9817 132.359 21.5531 132.568 21.1671C132.777 20.7811 132.977 20.4465 133.168 20.1641C133.36 19.8817 133.508 19.665 133.612 19.5144C133.299 19.5144 132.924 19.6841 132.489 20.0231C132.054 20.3621 131.597 20.8186 131.118 21.393C130.64 21.9674 130.148 22.6171 129.643 23.3424C129.138 24.0674 128.664 24.8115 128.22 25.5739C127.776 26.3367 127.38 27.0808 127.032 27.8057C126.684 28.5307 126.418 29.1804 126.235 29.7552C126.053 30.3296 125.974 30.7908 126.001 31.1394C126.027 31.4875 126.188 31.662 126.484 31.662C126.849 31.662 127.223 31.5536 127.606 31.337C127.989 31.1203 128.372 30.8283 128.755 30.4614C129.138 30.0941 129.508 29.656 129.865 29.1477C130.222 28.6391 130.566 28.1025 130.896 27.5373C130.827 27.1608 130.814 26.7653 130.857 26.351C130.901 25.9364 130.966 25.5504 131.053 25.1927C131.14 24.7784 131.262 24.3641 131.419 23.9495Z" fill="#FF7218"/>
<path d="M144.579 7C145.241 7 145.789 7.07088 146.224 7.21191C146.659 7.3533 147.008 7.50866 147.269 7.67833C147.582 7.88547 147.817 8.11133 147.974 8.3563C147.678 8.80803 147.312 9.38721 146.877 10.0935C146.442 10.7997 145.959 11.5956 145.428 12.4807C144.897 13.3658 144.331 14.317 143.731 15.3339C143.13 16.3509 142.516 17.3913 141.89 18.4556C141.263 19.5196 140.64 20.5931 140.023 21.6758C139.404 22.7589 138.817 23.7993 138.26 24.7975C139.113 24.2889 139.944 23.6487 140.754 22.8764C141.563 22.1044 142.273 21.3464 142.882 20.6023C143.491 19.8586 143.97 19.1854 144.318 18.5827C144.666 17.98 144.805 17.5937 144.736 17.4244C145.502 17.5184 146.05 17.6928 146.381 17.947C146.712 18.2011 146.868 18.5074 146.851 18.8651C146.833 19.2229 146.668 19.628 146.355 20.0797C146.041 20.5318 145.619 20.9931 145.088 21.4639C144.557 21.9347 143.939 22.4011 143.234 22.8624C142.529 23.3237 141.785 23.7619 141.002 24.1761C141.367 24.2701 141.672 24.3833 141.916 24.5151C142.159 24.647 142.36 24.7788 142.516 24.9106C142.691 25.0612 142.83 25.2118 142.934 25.3624C142.203 26.4924 141.611 27.5094 141.158 28.4136C140.967 28.79 140.793 29.1621 140.636 29.5293C140.48 29.8966 140.371 30.2216 140.31 30.504C140.249 30.7865 140.245 31.0171 140.297 31.196C140.349 31.3752 140.48 31.4644 140.688 31.4644C141.054 31.4644 141.463 31.2808 141.916 30.9136C142.368 30.5463 142.816 30.085 143.261 29.5293C143.705 28.9737 144.118 28.3666 144.501 27.7073C144.884 27.0481 145.184 26.4267 145.402 25.8428C145.619 25.2588 145.728 24.7505 145.728 24.3172C145.728 23.8842 145.571 23.6205 145.258 23.5264H147.974C147.156 25.2401 146.294 26.7561 145.389 28.0746C144.988 28.6395 144.566 29.1951 144.122 29.7412C143.678 30.2874 143.213 30.7725 142.725 31.196C142.238 31.6198 141.733 31.9588 141.211 32.2133C140.688 32.4674 140.166 32.5945 139.644 32.5945C139 32.5945 138.569 32.4439 138.351 32.1424C138.134 31.8413 138.042 31.4457 138.077 30.9562C138.112 30.4662 138.242 29.9201 138.469 29.3174C138.695 28.7147 138.935 28.1216 139.187 27.5377C139.439 26.9541 139.661 26.3984 139.853 25.871C140.044 25.3436 140.14 24.9198 140.14 24.5999C139.757 24.788 139.374 24.9577 138.991 25.1082C138.608 25.2588 138.225 25.4098 137.842 25.5603C137.302 26.5585 136.811 27.4859 136.367 28.3431C135.923 29.1999 135.558 29.9436 135.27 30.5746C134.983 31.2055 134.787 31.6999 134.683 32.0576C134.578 32.4156 134.596 32.5945 134.735 32.5945C134.091 32.5945 133.76 32.246 133.743 31.5493C133.725 30.8526 133.925 29.9344 134.343 28.7948C134.761 27.6556 135.331 26.3466 136.054 24.868C136.776 23.3898 137.555 21.8738 138.39 20.3199C139.226 18.7664 140.062 17.2312 140.897 15.7151C141.733 14.1991 142.464 12.8244 143.091 11.5908C143.717 10.3571 144.179 9.32624 144.475 8.49733C144.77 7.66878 144.805 7.16968 144.579 7Z" fill="#FF7218"/>
<path d="M147.373 27.8485C147.164 28.4137 147.007 28.9411 146.903 29.4307C146.799 29.9203 146.777 30.3488 146.838 30.7161C146.898 31.0834 147.051 31.3706 147.295 31.5777C147.538 31.7848 147.887 31.8884 148.339 31.8884C148.809 31.8884 149.336 31.6952 149.919 31.3092C150.502 30.9232 151.085 30.4337 151.668 29.8402C152.252 29.2471 152.796 28.6065 153.3 27.9194C153.805 27.2319 154.214 26.5774 154.528 25.956C154.841 25.3346 155.028 24.7977 155.089 24.3456C155.15 23.8938 155.024 23.6206 154.71 23.5266H157.426C156.451 25.2402 155.433 26.7563 154.371 28.0748C153.918 28.6396 153.435 29.1953 152.922 29.7414C152.408 30.2875 151.873 30.7727 151.316 31.1961C150.759 31.6199 150.193 31.9589 149.619 32.2134C149.044 32.4676 148.469 32.5947 147.895 32.5947C146.972 32.5947 146.268 32.3923 145.78 31.9872C145.293 31.5825 144.975 31.0455 144.827 30.3771C144.679 29.7083 144.688 28.9455 144.853 28.0887C145.018 27.2319 145.302 26.356 145.702 25.4617C146.102 24.567 146.611 23.6867 147.229 22.8203C147.847 21.954 148.535 21.1816 149.292 20.5036C150.049 19.8257 150.855 19.2748 151.708 18.851C152.56 18.4275 153.431 18.1965 154.319 18.159C154.754 17.5185 155.254 17.0477 155.82 16.7465C156.386 16.445 157.095 16.4263 157.948 16.69C157.739 16.69 157.517 16.9537 157.282 17.4811C157.048 18.0085 156.76 18.6721 156.421 19.4727C156.081 20.273 155.672 21.1489 155.193 22.0998C154.715 23.051 154.123 23.9361 153.418 24.7554C152.713 25.5744 151.886 26.2763 150.937 26.8599C149.989 27.4438 148.87 27.7732 147.582 27.8485H147.373ZM147.974 27.1988C148.809 27.1235 149.51 26.8033 150.076 26.2384C150.641 25.6736 151.133 24.9861 151.551 24.1763C151.969 23.3665 152.347 22.5049 152.687 21.5915C153.026 20.6781 153.396 19.8352 153.796 19.0629C153.327 19.3453 152.809 19.7787 152.243 20.3626C151.677 20.9462 151.111 21.615 150.546 22.3682C149.98 23.1215 149.44 23.9221 148.927 24.7694C148.413 25.617 147.982 26.436 147.634 27.2271C147.704 27.2084 147.817 27.1988 147.974 27.1988Z" fill="#FF7218"/>
<path d="M154.763 30.6174C154.502 31.2201 154.341 31.7001 154.28 32.0578C154.219 32.4159 154.293 32.5948 154.502 32.5948C153.858 32.5948 153.435 32.4063 153.235 32.0299C153.035 31.6531 152.983 31.154 153.079 30.5326C153.174 29.9112 153.392 29.2001 153.731 28.3995C154.071 27.5992 154.454 26.7707 154.88 25.9135C155.307 25.0567 155.738 24.1999 156.173 23.343C156.608 22.4859 156.982 21.7043 157.296 20.9981C157.609 20.2918 157.818 19.6847 157.923 19.1761C158.027 18.6674 157.966 18.3193 157.74 18.1309C158.401 18.1309 158.949 18.2014 159.385 18.3428C159.82 18.4838 160.168 18.6392 160.429 18.8088C160.743 19.016 160.986 19.2418 161.16 19.4868C160.812 20.0329 160.438 20.6308 160.037 21.2809C159.637 21.9306 159.228 22.5942 158.81 23.2722C158.392 23.9501 157.979 24.6376 157.57 25.3347C157.161 26.0314 156.773 26.7094 156.408 27.3686C156.965 26.6528 157.526 26.0031 158.092 25.4192C158.658 24.8356 159.193 24.3269 159.698 23.8939C159.872 23.404 160.09 22.8957 160.351 22.3683C160.612 21.8409 160.912 21.3279 161.252 20.8288C161.591 20.3297 161.97 19.8541 162.388 19.402C162.806 18.9502 163.267 18.5451 163.772 18.1874H166.252C166.148 18.6017 165.904 19.0865 165.521 19.6421C165.138 20.1978 164.681 20.7579 164.15 21.3231C163.619 21.8879 163.04 22.4297 162.414 22.9475C161.787 23.4653 161.187 23.8844 160.612 24.2046C160.612 24.2234 160.607 24.2329 160.599 24.2329C160.59 24.2329 160.586 24.2421 160.586 24.2612C160.499 24.393 160.412 24.6237 160.325 24.9531C160.238 25.2829 160.186 25.6219 160.168 25.9701C160.151 26.3186 160.181 26.6293 160.26 26.9026C160.338 27.1754 160.508 27.312 160.769 27.312C161.152 27.312 161.578 27.1615 162.048 26.86C162.518 26.5588 162.923 26.2007 163.262 25.7864C163.602 25.3722 163.824 24.9531 163.928 24.5293C164.033 24.1058 163.911 23.7713 163.563 23.5267H166.278C165.721 24.3739 165.129 25.118 164.503 25.7582C163.963 26.3234 163.349 26.8364 162.662 27.2977C161.974 27.7594 161.265 27.99 160.534 27.99C159.977 27.99 159.607 27.7311 159.424 27.2133C159.241 26.6954 159.219 26.041 159.359 25.2499C158.958 25.5889 158.545 25.9653 158.118 26.3799C157.692 26.7942 157.274 27.232 156.865 27.6933C156.456 28.1549 156.068 28.6305 155.703 29.1201C155.337 29.6096 155.024 30.1088 154.763 30.6174Z" fill="#FF7218"/>
<path d="M168.08 20.5032C168.498 20.0324 168.942 19.6181 169.412 19.2604C169.812 18.9401 170.278 18.6577 170.809 18.4128C171.34 18.1678 171.91 18.055 172.519 18.0738C172.362 18.1303 172.214 18.3753 172.075 18.8083C171.936 19.2413 171.797 19.8017 171.657 20.4893C171.518 21.1764 171.362 21.9535 171.187 22.8199C171.013 23.6863 170.809 24.5618 170.574 25.4469C170.339 26.332 170.06 27.2032 169.738 28.06C169.416 28.9172 169.038 29.6752 168.602 30.3341C169.229 29.7692 169.83 29.1243 170.404 28.399C170.979 27.674 171.453 26.9725 171.827 26.2946C172.201 25.6166 172.445 25.0187 172.558 24.5005C172.671 23.9827 172.58 23.6389 172.284 23.4696H175C174.512 24.3547 173.92 25.2824 173.224 26.252C172.528 27.2219 171.784 28.1309 170.992 28.9782C170.2 29.8258 169.377 30.5603 168.524 31.1817C167.671 31.8031 166.835 32.227 166.017 32.4528C165.669 32.5472 165.321 32.5942 164.973 32.5942C164.207 32.5942 163.658 32.3022 163.328 31.7183C162.997 31.1347 162.836 30.4285 162.845 29.5996C162.853 28.771 163.005 27.9094 163.302 27.0148C163.598 26.1201 163.985 25.3621 164.464 24.7407C164.942 24.1193 165.478 23.7237 166.07 23.5544C166.661 23.3847 167.262 23.6014 167.871 24.2041C167.645 24.2041 167.366 24.3925 167.036 24.769C166.705 25.1458 166.378 25.6214 166.056 26.1958C165.734 26.7702 165.438 27.3916 165.169 28.06C164.899 28.7288 164.698 29.3502 164.568 29.9246C164.437 30.499 164.402 30.9794 164.464 31.3654C164.524 31.7513 164.729 31.9445 165.077 31.9445C165.425 31.9445 165.769 31.7043 166.109 31.224C166.448 30.744 166.766 30.1317 167.062 29.388C167.358 28.6439 167.619 27.8198 167.845 26.916C168.071 26.0121 168.237 25.1362 168.341 24.2886C168.446 23.4413 168.48 22.6785 168.446 22.0005C168.411 21.3226 168.289 20.8235 168.08 20.5032Z" fill="#FF7218"/>
<path d="M84.8885 9.11816C84.7494 10.0224 84.4883 10.7617 84.1054 11.3361C83.7221 11.9105 83.2435 12.3578 82.6691 12.6777C82.0947 12.9979 81.4419 13.2098 80.7107 13.3134C79.9795 13.417 79.2092 13.4548 78.3999 13.4265C77.5903 13.3982 76.7548 13.323 75.8929 13.2003C75.0313 13.078 74.1738 12.9414 73.3211 12.7908C73.6867 12.9414 73.9739 13.1298 74.1827 13.3556C74.3914 13.5819 74.5571 13.7986 74.6786 14.0057C74.8005 14.2503 74.8877 14.514 74.94 14.7964C74.5744 15.3804 74.1304 16.0818 73.6083 16.9012C73.0858 17.7205 72.5332 18.6009 71.95 19.5425C71.3667 20.4842 70.7662 21.4633 70.1484 22.4806C69.5302 23.4976 68.9385 24.491 68.3726 25.461C67.807 26.4309 67.2846 27.3487 66.806 28.2151C66.3273 29.0814 65.9311 29.8442 65.6178 30.5035C65.3045 31.1627 65.0957 31.6853 64.9911 32.0713C64.8866 32.4573 64.9215 32.6505 65.0957 32.6505C64.4514 32.6505 64.0817 32.382 63.986 31.8455C63.8902 31.3085 63.9816 30.5975 64.2599 29.7124C64.5386 28.8273 64.9565 27.8151 65.5136 26.6755C66.0707 25.5363 66.6797 24.364 67.3413 23.1586C68.0029 21.9532 68.6642 20.7571 69.3258 19.5708C69.9875 18.3842 70.5619 17.3059 71.0493 16.3363C71.5365 15.3664 71.8848 14.547 72.0935 13.8783C72.3027 13.2098 72.2938 12.7812 72.0674 12.5932H72.0935C71.1885 12.4613 70.3266 12.3578 69.5085 12.2821C68.6904 12.2068 67.9591 12.2164 67.3152 12.3104C66.6712 12.4048 66.1358 12.6072 65.7091 12.9179C65.2827 13.2286 65.0173 13.7042 64.9127 14.3447C64.9826 13.4592 65.3045 12.7577 65.8789 12.2399C66.4536 11.7221 67.1889 11.3265 68.0854 11.0533C68.982 10.7804 69.9915 10.6063 71.1145 10.5307C72.2371 10.4554 73.3907 10.4227 74.5744 10.4319C75.7581 10.4414 76.9246 10.4601 78.0733 10.4884C79.2224 10.5167 80.2711 10.5072 81.2199 10.4601C82.1687 10.4131 82.9695 10.2908 83.6223 10.0929C84.2751 9.89529 84.6971 9.57026 84.8885 9.11816Z" fill="white"/>
<path d="M73.9218 27.933C73.7127 28.4982 73.5562 29.0252 73.4517 29.5152C73.3474 30.0047 73.3254 30.4333 73.3865 30.8006C73.4472 31.1678 73.5997 31.455 73.8434 31.6622C74.0871 31.8693 74.4354 31.9729 74.888 31.9729C75.3578 31.9729 75.8846 31.7797 76.4679 31.3937C77.0507 31.0077 77.6339 30.5178 78.2172 29.9247C78.8004 29.3315 79.3445 28.691 79.8493 28.0035C80.3541 27.3164 80.7632 26.6619 81.0765 26.0405C81.3898 25.4187 81.5769 24.8821 81.638 24.43C81.6988 23.9779 81.5725 23.7051 81.2591 23.6107H83.9749C83 25.3247 81.9815 26.8408 80.9197 28.1592C80.4672 28.7241 79.9841 29.2798 79.4705 29.8259C78.9572 30.372 78.4218 30.8568 77.8648 31.2806C77.3077 31.7044 76.7418 32.0434 76.1674 32.2975C75.593 32.5521 75.0183 32.6791 74.4439 32.6791C73.5212 32.6791 72.8165 32.4764 72.329 32.0717C71.8415 31.6666 71.5238 31.13 71.3758 30.4616C71.2278 29.7928 71.2366 29.03 71.4019 28.1732C71.5673 27.3164 71.85 26.4404 72.2506 25.5458C72.6508 24.6515 73.1601 23.7708 73.7782 22.9044C74.3961 22.0384 75.0838 21.2661 75.8409 20.5881C76.5982 19.9101 77.4034 19.3593 78.2565 18.9354C79.1093 18.5116 79.9797 18.281 80.8677 18.2435C81.3029 17.603 81.8033 17.1322 82.3689 16.831C82.9348 16.5295 83.6443 16.5108 84.497 16.7745C84.2882 16.7745 84.0662 17.0382 83.8313 17.5655C83.5964 18.0926 83.3092 18.7566 82.9697 19.5568C82.6303 20.3575 82.2212 21.233 81.7422 22.1842C81.2636 23.1354 80.6719 24.0206 79.9668 24.8396C79.2617 25.6589 78.4347 26.3604 77.4859 26.9443C76.5374 27.5283 75.4189 27.8577 74.1306 27.933H73.9218ZM74.5223 27.2833C75.3578 27.208 76.0585 26.8878 76.6244 26.3229C77.1903 25.7577 77.6818 25.0706 78.0997 24.2607C78.5176 23.4509 78.8961 22.589 79.2356 21.6756C79.575 20.7622 79.9451 19.9197 80.3453 19.1473C79.8755 19.4298 79.3574 19.8631 78.7915 20.4467C78.226 21.0307 77.6601 21.6991 77.0945 22.4527C76.5286 23.206 75.9889 24.0062 75.4756 24.8539C74.962 25.7011 74.5312 26.5205 74.1829 27.3116C74.2525 27.2929 74.3655 27.2833 74.5223 27.2833Z" fill="white"/>
<path d="M90.1367 18.3842C90.7984 18.3842 91.3466 18.4551 91.7818 18.5961C92.217 18.7375 92.5653 18.8928 92.8264 19.0621C93.1397 19.2693 93.3746 19.4955 93.5315 19.7401C92.104 21.9437 90.8941 23.9118 89.9018 25.6446C89.4839 26.3791 89.0837 27.1041 88.7008 27.8195C88.3175 28.5353 88.0086 29.1663 87.7737 29.7124C87.5388 30.2585 87.3952 30.7011 87.3429 31.04C87.2906 31.379 87.369 31.5487 87.5778 31.5487C87.9434 31.5487 88.3525 31.3651 88.805 30.9978C89.2575 30.6305 89.706 30.1693 90.15 29.6136C90.5937 29.0579 91.0071 28.4505 91.3901 27.7916C91.773 27.1324 92.0734 26.511 92.291 25.927C92.5086 25.3431 92.6176 24.8348 92.6176 24.4014C92.6176 23.9684 92.4608 23.7047 92.1474 23.6103H94.8632C94.0624 25.3243 93.2005 26.8404 92.2781 28.1589C91.8776 28.7237 91.4556 29.2794 91.0116 29.8255C90.5675 30.3716 90.0977 30.8564 89.6014 31.2802C89.1054 31.7041 88.5962 32.043 88.0738 32.2972C87.5517 32.5517 87.0296 32.6788 86.5071 32.6788C85.8978 32.6788 85.541 32.4481 85.4368 31.9865C85.3322 31.5252 85.3845 30.9177 85.5933 30.1645C84.9839 30.899 84.3572 31.5017 83.7133 31.9725C83.069 32.4433 82.425 32.6788 81.781 32.6788C81.2063 32.6788 80.8234 32.4055 80.6319 31.8594C80.4404 31.3133 80.3926 30.6118 80.4883 29.755C80.584 28.8978 80.8016 27.9374 81.1411 26.8735C81.4806 25.8091 81.9029 24.7591 82.4077 23.7234C82.9125 22.6878 83.4824 21.7226 84.1179 20.8279C84.7534 19.9333 85.4018 19.2223 86.0634 18.6949C86.7247 18.1675 87.3819 17.8898 88.0347 17.8616C88.6875 17.8333 89.2925 18.1583 89.8495 18.8363C90.076 19.1374 90.2152 19.5425 90.2674 20.0508C90.4589 19.5425 90.5546 19.1374 90.5546 18.8363C90.5546 18.5348 90.4154 18.3842 90.1367 18.3842ZM82.6164 31.6901C82.982 31.6901 83.4084 31.4499 83.8959 30.9695C84.3834 30.4891 84.8709 29.8865 85.3583 29.1615C85.8458 28.4365 86.3072 27.6454 86.7424 26.7886C87.1776 25.9318 87.5255 25.1264 87.7866 24.3731C88.048 23.6199 88.1956 22.9702 88.2306 22.4241C88.2656 21.8779 88.1261 21.5577 87.8127 21.4633H89.4578C89.545 21.0869 89.5753 20.7618 89.5491 20.489C89.523 20.2157 89.4317 20.0321 89.2752 19.9381C88.8573 19.7118 88.3525 19.8437 87.7604 20.3336C87.1687 20.8232 86.5682 21.5059 85.9589 22.3815C85.3495 23.2574 84.7619 24.2321 84.1963 25.3056C83.6304 26.3791 83.1735 27.3913 82.8256 28.3425C82.4773 29.2933 82.2641 30.0892 82.1857 30.7293C82.1072 31.3698 82.2508 31.6901 82.6164 31.6901Z" fill="white"/>
<defs>
<linearGradient id="paint0_linear_320_2" x1="4.2599" y1="30.3929" x2="50.1018" y2="30.3929" gradientUnits="userSpaceOnUse">
<stop stop-color="#FF7218"/>
<stop offset="0.502066" stop-color="#FFA85F"/>
<stop offset="1" stop-color="#FF7218"/>
</linearGradient>
<radialGradient id="paint1_radial_320_2" cx="0" cy="0" r="1" gradientUnits="userSpaceOnUse" gradientTransform="translate(27.0662 52.5461) scale(34.0044 34.1064)">
<stop stop-color="#88DC52"/>
<stop offset="1" stop-color="#00893F"/>
</radialGradient>
</defs>
</svg>
