<svg width="33" height="33" viewBox="0 0 33 33" fill="none" xmlns="http://www.w3.org/2000/svg">
<rect width="32.21" height="32.21" rx="5" fill="#25D366"/>
<g clip-path="url(#clip0_306_51)">
<path d="M24.4015 7.48895C23.3012 6.37847 21.9909 5.49807 20.547 4.89906C19.103 4.30005 17.5543 3.99441 15.991 3.99995C9.4405 3.99995 4.102 9.33695 4.096 15.889C4.096 17.9875 4.645 20.029 5.6815 21.8365L4 28L10.306 26.347C12.0505 27.2963 14.0049 27.7939 15.991 27.7945H15.997C22.549 27.7945 27.886 22.4575 27.892 15.8995C27.8935 14.3365 27.5857 12.7887 26.9864 11.3453C26.3871 9.90181 25.5081 8.5912 24.4 7.48895H24.4015ZM15.991 25.7815C14.2195 25.7821 12.4806 25.3053 10.957 24.4015L10.597 24.1855L6.856 25.1665L7.855 21.517L7.621 21.1405C6.63071 19.5659 6.10697 17.743 6.1105 15.883C6.1105 10.444 10.546 6.00695 15.997 6.00695C17.2956 6.00462 18.5818 6.25936 19.7815 6.75649C20.9812 7.25362 22.0706 7.98329 22.987 8.90345C23.9065 9.82003 24.6355 10.9096 25.1319 12.1093C25.6282 13.309 25.8822 14.5951 25.879 15.8935C25.873 21.352 21.4375 25.7815 15.991 25.7815ZM21.4135 18.3805C21.118 18.232 19.6585 17.5135 19.384 17.4115C19.111 17.314 18.9115 17.263 18.7165 17.56C18.517 17.8555 17.947 18.529 17.776 18.7225C17.605 18.922 17.428 18.9445 17.131 18.7975C16.8355 18.6475 15.877 18.3355 14.743 17.32C13.858 16.5325 13.2655 15.5575 13.0885 15.262C12.9175 14.965 13.072 14.806 13.2205 14.6575C13.351 14.5255 13.516 14.3095 13.6645 14.1385C13.8145 13.9675 13.864 13.8415 13.9615 13.6435C14.059 13.4425 14.0125 13.2715 13.939 13.123C13.864 12.9745 13.2715 11.509 13.021 10.918C12.781 10.3345 12.5365 10.4155 12.3535 10.408C12.1825 10.3975 11.983 10.3975 11.7835 10.3975C11.6328 10.4012 11.4846 10.436 11.348 10.4998C11.2115 10.5636 11.0896 10.6549 10.99 10.768C10.717 11.065 9.9535 11.7835 9.9535 13.249C9.9535 14.7145 11.0185 16.123 11.1685 16.3225C11.3155 16.522 13.2595 19.5205 16.243 20.8105C16.948 21.118 17.503 21.2995 17.9365 21.4375C18.649 21.6655 19.2925 21.631 19.8055 21.5575C20.3755 21.4705 21.562 20.8375 21.8125 20.143C22.0585 19.447 22.0585 18.853 21.9835 18.7285C21.91 18.6025 21.7105 18.529 21.4135 18.3805Z" fill="white"/>
</g>
<defs>
<clipPath id="clip0_306_51">
<rect width="24" height="24" fill="white" transform="translate(4 4)"/>
</clipPath>
</defs>
</svg>
